HIERARCHY
ROOT root     
{
	OFFSET 0.0000 0.0000 0.0000
	CHANNELS 6 Xposition Yposition Zposition Zrotation Yrotation Xrotation
	JOINT pelvis   
	{
		OFFSET 0.0000 0.0000 0.0000
		CHANNELS 3 Zrotation Yrotation Xrotation
		JOINT thorax   
		{
			OFFSET 0.0000 23.0750 -5.0000
			CHANNELS 3 Zrotation Yrotation Xrotation
			JOINT rclavicle
			{
				OFFSET 0.0000 28.0009 0.0000
				CHANNELS 3 Zrotation Yrotation Xrotation
				JOINT rhumerus 
				{
					OFFSET -18.5725 5.5939 0.0000
					CHANNELS 3 Zrotation Yrotation Xrotation
					JOINT rradius  
					{
						OFFSET -24.8459 0.0000 0.0000
						CHANNELS 3 Zrotation Yrotation Xrotation
						JOINT rhand    
						{
							OFFSET -24.5477 0.0000 0.0000
							CHANNELS 3 Zrotation Yrotation Xrotation
							End Site
							{
								OFFSET -8.1826 0.0000 0.0000
							}
						}
					}
				}
			}
			JOINT lclavicle
			{
				OFFSET 0.0000 28.0009 0.0000
				CHANNELS 3 Zrotation Yrotation Xrotation
				JOINT lhumerus 
				{
					OFFSET 18.5725 5.5939 0.0000
					CHANNELS 3 Zrotation Yrotation Xrotation
					JOINT lradius  
					{
						OFFSET 24.8459 0.0000 0.0000
						CHANNELS 3 Zrotation Yrotation Xrotation
						JOINT lhand    
						{
							OFFSET 24.5477 0.0000 0.0000
							CHANNELS 3 Zrotation Yrotation Xrotation
							End Site
							{
								OFFSET 8.1826 0.0000 0.0000
							}
						}
					}
				}
			}
			JOINT head     
			{
				OFFSET 0.0000 35.2030 0.0000
				CHANNELS 3 Zrotation Yrotation Xrotation
				End Site
				{
					OFFSET 0.0000 11.7343 0.0000
				}
			}
		}
		JOINT rfemur   
		{
			OFFSET -8.2817 0.0000 0.0000
			CHANNELS 3 Zrotation Yrotation Xrotation
			JOINT rtibia   
			{
				OFFSET 0.0000 -43.3627 0.0000
				CHANNELS 3 Zrotation Yrotation Xrotation
				JOINT rfoot    
				{
					OFFSET 0.0000 -38.2947 0.0000
					CHANNELS 3 Zrotation Yrotation Xrotation
					JOINT rtoes    
					{
						OFFSET 0.0000 0.0000 16.6054
						CHANNELS 3 Zrotation Yrotation Xrotation
						End Site
						{
							OFFSET 0.0000 0.0000 5.5351
						}
					}
				}
			}
		}
		JOINT lfemur   
		{
			OFFSET 8.2817 0.0000 0.0000
			CHANNELS 3 Zrotation Yrotation Xrotation
			JOINT ltibia   
			{
				OFFSET 0.0000 -43.3627 0.0000
				CHANNELS 3 Zrotation Yrotation Xrotation
				JOINT lfoot    
				{
					OFFSET 0.0000 -38.2947 0.0000
					CHANNELS 3 Zrotation Yrotation Xrotation
					JOINT ltoes    
					{
						OFFSET 0.0000 0.0000 16.6054
						CHANNELS 3 Zrotation Yrotation Xrotation
						End Site
						{
							OFFSET 0.0000 0.0000 5.5351
						}
					}
				}
			}
		}
	}
}
MOTION
Frames: 11
Frame Time: .0333333
121.23 74.106 16.162 -58.1086 -80.8398 86.7511 0 -0 0 -10.6947 -10.0129 22.6386 26.2599 -10.6399 -8.01795e-05 55.704 -9.39618 14.8291 -0 68.5987 -0 -9.53109 4.91993 -0.410407 -8.2556 6.62155 -5.32302e-06 -48.6365 -16.2223 -2.89387 0 -75.3356 0 6.08547 5.65253 0.300699 9.78645 4.80786 -4.2106 16.1048 -5.14954 -75.3313 -0 -0 68.0178 7.77146e-05 -14.875 -9.8168 2.59293 8.15663e-07 -6.76239 -6.89933 17.7634 -66.4022 -0 -0 73.6882 -2.04754e-05 5.3799 -21.0321 -1.93571 -1.57655e-06 -29.9996 
120.52 74.122 16.184 -58.382 -80.8936 86.9884 0 -0 0 -10.5568 -10.2757 22.6044 26.2993 -10.7872 7.44238e-06 55.549 -9.69248 14.4995 -9.06162e-07 68.0977 -1.34097e-06 -9.50504 4.83338 -0.402102 -7.96867 6.61889 6.36788e-08 -47.8656 -16.9359 -2.96476 1.08557e-06 -75.9914 -1.38969e-06 5.94175 5.74855 0.298602 10.0058 4.94982 -4.19439 16.3198 -4.9444 -76.0392 -0 -0 65.1942 -4.18473e-05 -15.3922 -9.27425 2.54048 2.22915e-06 -7.12334 -6.86755 18.0765 -65.9339 -0 -0 73.9116 3.46182e-07 5.31233 -21.167 -1.92305 -6.98206e-06 -31.1679 
119.79 74.132 16.206 -58.6222 -80.964 87.185 0 -0 0 -10.4195 -10.5181 22.5546 26.3316 -10.9363 4.65873e-05 55.403 -10.0061 14.1817 -0 67.6327 -0 -9.49255 4.72703 -0.392699 -7.67612 6.59814 -5.47659e-06 -47.1445 -17.5679 -3.0926 0 -76.6659 0 5.79883 5.83845 0.295997 10.2277 5.07171 -4.19368 16.5564 -4.77625 -76.6271 -0 -0 62.2547 1.6146e-05 -15.9165 -8.72798 2.47765 -5.95853e-06 -7.63245 -6.82534 18.3711 -65.4328 -0 -0 74.1303 2.01126e-05 5.2418 -21.2933 -1.9082 4.807e-06 -32.5025 
119.05 74.137 16.232 -58.7918 -81.0544 87.2999 0 -0 0 -10.2901 -10.7499 22.4976 26.3575 -11.0959 2.82411e-05 55.2581 -10.3259 13.8982 -0 67.2035 -0 -9.5013 4.6105 -0.383407 -7.40687 6.59069 -4.53355e-06 -46.4421 -18.1569 -3.25135 8.61399e-07 -77.3522 -1.07615e-06 5.66432 5.93537 0.293901 10.4432 5.17999 -4.2091 16.8146 -4.65937 -77.0973 -0 -0 59.2226 9.94e-05 -16.4028 -8.1811 2.39866 7.34051e-06 -8.28006 -6.78079 18.6428 -64.8885 -0 -0 74.3373 2.60974e-05 5.17098 -21.434 -1.89407 1.27513e-05 -33.8276 
118.29 74.135 16.261 -58.8548 -81.1645 87.294 0 -0 0 -10.165 -10.9729 22.4358 26.3752 -11.2646 5.89383e-05 55.1098 -10.6604 13.6513 -9.05444e-07 66.8222 -5.97299e-07 -9.52596 4.48828 -0.374195 -7.15805 6.58956 3.65417e-06 -45.772 -18.6929 -3.44166 -1.13242e-06 -78.0447 9.17793e-07 5.53422 6.0353 0.292002 10.6476 5.27548 -4.23831 17.0911 -4.59174 -77.4484 -0 -0 56.1235 -1.63081e-05 -16.8164 -7.63102 2.29835 7.20059e-06 -9.05399 -6.72922 18.889 -64.2949 -0 -0 74.5346 -1.21524e-06 5.10214 -21.5911 -1.8818 1.28172e-05 -35.067 
117.52 74.126 16.288 -58.8256 -81.2866 87.1764 0 -0 0 -10.0317 -11.1831 22.3724 26.3848 -11.4347 3.13938e-05 54.9619 -11.0256 13.4283 -8.95663e-07 66.5096 -5.87344e-07 -9.55236 4.3556 -0.364105 -6.9022 6.57668 -2.41812e-06 -45.1789 -19.1523 -3.67246 9.81765e-07 -78.7537 -1.19624e-06 5.39521 6.11991 0.288601 10.837 5.35565 -4.28011 17.3799 -4.55891 -77.676 -0 -0 52.9699 9.07671e-06 -17.1442 -7.0676 2.17363 -2.56112e-07 -9.95848 -6.65765 19.1136 -63.6569 -0 -0 74.7254 -2.55727e-06 5.03772 -21.7379 -1.86988 1.74546e-05 -36.4338 
116.72 74.109 16.318 -58.6387 -81.4196 86.8827 0 -0 0 -9.9009 -11.389 22.3121 26.386 -11.6125 -4.49347e-06 54.8087 -11.4129 13.244 -8.19534e-07 66.261 -1.25574e-06 -9.57768 4.22528 -0.354092 -6.66227 6.5699 -7.87027e-07 -44.6355 -19.5587 -3.92007 -1.26921e-06 -79.4577 1.05484e-06 5.26233 6.20017 0.285193 11.0102 5.42401 -4.33105 17.6703 -4.57267 -77.7877 -0 -0 49.8034 -8.56962e-06 -17.3481 -6.50346 2.02637 -6.86358e-06 -10.9237 -6.5725 19.309 -62.9603 -0 -0 74.9105 1.70971e-06 4.97834 -21.8947 -1.8605 -3.09397e-08 -37.6859 
115.89 74.085 16.346 -58.2746 -81.5673 86.3857 0 -0 0 -9.76691 -11.589 22.2576 26.3783 -11.7952 8.20317e-05 54.6534 -11.8289 13.0927 -0 66.0757 -0 -9.58912 4.09806 -0.343892 -6.42726 6.56269 -6.69132e-06 -44.1568 -19.9057 -4.18122 0 -80.1718 0 5.13415 6.26922 0.281406 11.1671 5.47931 -4.38868 17.9483 -4.62488 -77.7839 -0 -0 46.6507 1.3026e-06 -17.4224 -5.93909 1.85974 1.05427e-05 -11.929 -6.468 19.4789 -62.2068 -0 -0 75.0912 1.51791e-05 4.9231 -22.0508 -1.85223 4.80093e-06 -38.8883 
115.05 74.052 16.373 -57.703 -81.7273 85.6566 0 -0 0 -9.63397 -11.7858 22.211 26.3604 -11.9841 0.00017133 54.4987 -12.2722 12.9738 -0 65.964 -0 -9.57636 3.97844 -0.333399 -6.19659 6.55757 8.54728e-07 -43.7452 -20.1977 -4.44413 1.23363e-06 -80.8654 -1.44777e-06 5.01506 6.32719 0.277404 11.3101 5.52123 -4.45082 18.1945 -4.71201 -77.678 -0 -0 43.5453 -8.35946e-06 -17.3623 -5.38025 1.67934 1.25385e-05 -12.9549 -6.34478 19.6199 -61.3944 -0 -0 75.2675 -1.75687e-05 4.87161 -22.2016 -1.84465 -1.26855e-05 -40.0631 
114.17 74.012 16.398 -56.9 -81.8968 84.6732 0 -0 0 -9.50527 -11.9779 22.168 26.3361 -12.1775 -1.49317e-05 54.3461 -12.7445 12.8809 -0 65.9151 -0 -9.52811 3.86879 -0.3225 -5.96676 6.5554 -7.67294e-06 -43.4023 -20.4375 -4.69787 -1.55711e-06 -81.5598 1.34309e-06 4.90808 6.37436 0.273497 11.4412 5.54908 -4.51483 18.3852 -4.82758 -77.4805 -0 -0 40.52 -2.14612e-05 -17.1766 -4.83278 1.49178 -2.42934e-06 -13.9954 -6.20491 19.7293 -60.5249 -0 -0 75.4384 3.07343e-05 4.82127 -22.3448 -1.83672 -1.70696e-05 -41.1806 
113.28 73.964 16.423 -55.8707 -82.0759 83.443 0 -0 0 -9.38287 -12.1637 22.1291 26.3007 -12.3766 -5.04707e-05 54.2009 -13.2395 12.8148 -5.69426e-07 65.9287 -8.78057e-07 -9.43913 3.77258 -0.311605 -5.7416 6.55923 -5.15621e-06 -43.1212 -20.6304 -4.93303 1.46999e-06 -82.2381 -1.68392e-06 4.81555 6.41503 0.270002 11.5625 5.56229 -4.58085 18.4963 -4.96271 -77.2055 -0 -0 37.6058 -1.63455e-05 -16.8835 -4.30203 1.30432 2.21528e-06 -15.0534 -6.05185 19.8095 -59.6006 -0 -0 75.6027 5.3202e-06 4.77009 -22.4779 -1.8273 1.06272e-05 -42.3059 
